<?xml version="1.0" encoding="UTF-8" standalone="no"?>
<svg width="149px" height="169px" viewBox="0 0 149 169" version="1.1" xmlns="http://www.w3.org/2000/svg" xmlns:xlink="http://www.w3.org/1999/xlink" xmlns:sketch="http://www.bohemiancoding.com/sketch/ns">
    <!-- Generator: Sketch 3.4.4 (17249) - http://www.bohemiancoding.com/sketch -->
    <title>Artboard</title>
    <desc>Created with Sketch.</desc>
    <defs></defs>
    <g id="Page-1" stroke="none" stroke-width="1" fill="none" fill-rule="evenodd" sketch:type="MSPage">
        <g id="Artboard" sketch:type="MSArtboardGroup">
            <path d="M69.285399,1.24045189 C72.1532954,-0.415328836 76.8094667,-0.411638062 79.6709704,1.24045189 L143.763584,38.2443395 C146.63148,39.9001202 148.956369,43.9343282 148.956369,47.2385081 L148.956369,121.246283 C148.956369,124.557845 146.625087,128.588362 143.763584,130.240452 L79.6709704,167.244339 C76.8030741,168.90012 72.1469028,168.896429 69.285399,167.244339 L5.19278569,130.240452 C2.32488935,128.584671 3.55271368e-14,124.550463 3.37507799e-14,121.246283 L-8.8817842e-15,47.2385081 C-1.0658141e-14,43.9269467 2.33128195,39.8964294 5.19278569,38.2443395 L69.285399,1.24045189 Z M73.3408982,9.84183112 C74.2943226,9.29137127 75.8405181,9.29159592 76.7935534,9.84183112 L139.146966,45.8415904 C140.10039,46.3920502 140.873293,47.7312071 140.873293,48.8316775 L140.873293,120.831196 C140.873293,121.932116 140.100001,123.271048 139.146966,123.821283 L76.7935534,159.821042 C75.840129,160.371502 74.2939335,160.371278 73.3408982,159.821042 L10.9874861,123.821283 C10.0340617,123.270823 9.2611585,121.931666 9.2611585,120.831196 L9.2611585,48.8316775 C9.2611585,47.7307578 10.0344508,46.3918256 10.9874861,45.8415904 L73.3408982,9.84183112 Z" id="base" fill="#2E323B" sketch:type="MSShapeGroup"></path>
            <path d="M71.285399,4.70455351 L71.285399,4.70455351 L71.285399,4.70455351 L7.19278569,41.7084411 C5.56635456,42.6474615 4,45.3589305 4,47.2385081 L4,121.246283 C4,123.124324 5.56502376,125.836561 7.19278569,126.77635 L71.285399,163.780238 C72.9118302,164.719258 76.0432085,164.720027 77.6709704,163.780238 L141.763584,126.77635 C143.390015,125.83733 144.956369,123.125861 144.956369,121.246283 L144.956369,47.2385081 C144.956369,45.3604672 143.391346,42.6482299 141.763584,41.7084411 L77.6709704,4.70455351 C76.0445393,3.76553306 72.913161,3.76476471 71.285399,4.70455351 L71.285399,4.70455351 Z M69.285399,1.24045189 C72.1532954,-0.415328836 76.8094667,-0.411638062 79.6709704,1.24045189 L143.763584,38.2443395 C146.63148,39.9001202 148.956369,43.9343282 148.956369,47.2385081 L148.956369,121.246283 C148.956369,124.557845 146.625087,128.588362 143.763584,130.240452 L79.6709704,167.244339 C76.8030741,168.90012 72.1469028,168.896429 69.285399,167.244339 L5.19278569,130.240452 C2.32488935,128.584671 5.68434189e-14,124.550463 5.68434189e-14,121.246283 L0,47.2385081 C0,43.9269467 2.33128195,39.8964294 5.19278569,38.2443395 L69.285399,1.24045189 L69.285399,1.24045189 Z" id="border" fill="#3DEB9F" sketch:type="MSShapeGroup"></path>
            <path d="M148.956369,84.7423957 L148.956369,47.2385081 C148.956369,43.9343282 146.63148,39.9001202 143.763584,38.2443395 L79.6709704,1.24045189 C76.8094667,-0.411638062 72.1532954,-0.415328836 69.285399,1.24045189 L5.19278569,38.2443395 C2.33128195,39.8964294 -3.93590509e-14,43.9269467 -3.75122148e-14,47.2385081 L-1.65965433e-14,84.7423957 L-3.75122148e-14,48.2385081 C-3.93590509e-14,44.9269467 2.33128195,40.8964294 5.19278569,39.2443395 L69.285399,2.24045189 C72.1532954,0.584671164 76.8094667,0.588361938 79.6709704,2.24045189 L143.763584,39.2443395 C146.63148,40.9001202 148.956369,44.9343282 148.956369,48.2385081 L148.956369,84.7423957 Z" id="highlight" fill-opacity="0.6" fill="#E4E9F7" sketch:type="MSShapeGroup"></path>
        </g>
    </g>
</svg>