<?xml version="1.0" encoding="UTF-8" standalone="no"?>
<svg width="129px" height="95px" viewBox="0 0 129 95" version="1.1" xmlns="http://www.w3.org/2000/svg" xmlns:xlink="http://www.w3.org/1999/xlink">
    <!-- Generator: Sketch 41.2 (35397) - http://www.bohemiancoding.com/sketch -->
    <title>logo</title>
    <desc>Created with Sketch.</desc>
    <defs></defs>
    <g id="Page-1" stroke="none" stroke-width="1" fill="none" fill-rule="evenodd">
        <g id="logo" fill="#FF7048">
            <path d="M80.2599421,5.56439396 L80.2599421,5.56439396 L80.2599421,5.56439396 L45.2755498,25.6463782 C44.8895232,25.8679678 44.2593325,26.953039 44.2593325,27.3963866 L44.2593325,67.560355 C44.2593325,68.0035343 44.8893767,69.0886896 45.2755498,69.3103634 L80.2599421,89.3923476 C80.6459688,89.6139373 81.9062036,89.6140214 82.2923768,89.3923476 L117.276769,69.3103634 C117.662796,69.0887737 118.292986,68.0037026 118.292986,67.560355 L118.292986,27.3963866 C118.292986,26.9532072 117.662942,25.868052 117.276769,25.6463782 L82.2923768,5.56439396 C81.9063502,5.34280427 80.6461153,5.34272016 80.2599421,5.56439396 L80.2599421,5.56439396 Z M77.6361374,1.04599009 C79.6464661,-0.107992748 82.9070785,-0.107289218 84.9161815,1.04599009 L119.900574,21.1279743 C121.910902,22.2819571 123.540596,25.089828 123.540596,27.3963866 L123.540596,67.560355 C123.540596,69.8683206 121.909677,72.675488 119.900574,73.8287673 L84.9161815,93.9107515 C82.9058528,95.0647343 79.6452405,95.0640308 77.6361374,93.9107515 L42.6517451,73.8287673 C40.6414165,72.6747844 39.0117231,69.8669136 39.0117231,67.560355 L39.0117231,27.3963866 C39.0117231,25.0884209 40.6426421,22.2812536 42.6517451,21.1279743 L77.6361374,1.04599009 L77.6361374,1.04599009 Z" id="Shape"></path>
            <path d="M35.7154963,31.4030925 C35.7154963,31.4030925 36.7765629,17.1731465 30.9454194,9.26878039 C25.1142758,1.36337079 12.9230296,8.74077917 13.9830467,11.9035691 C15.0430638,15.0653155 35.7154963,31.4030925 35.7154963,31.4030925 Z M35.2411124,31.9018763 C35.2411124,31.9018763 19.2652904,38.906762 7.77512481,35.481015 C-3.71609026,32.0552679 -0.175003434,15.1529679 3.90343859,15.0736634 C7.9808311,14.9943589 35.2411124,31.9018763 35.2411124,31.9018763 Z M44.9193589,60.8697061 C39.7587408,60.8697061 35.5360157,56.9232403 35.5360157,52.1002405 L35.5360157,40.4217129 C35.5360157,35.5976818 39.7587408,31.6522472 44.9193589,31.6522472 L118.938974,31.6522472 C124.099592,31.6522472 128.322317,35.5976818 128.322317,40.4217129 L128.322317,52.1002405 C128.322317,56.9232403 124.099592,60.8697061 118.938974,60.8697061 L44.9193589,60.8697061 Z M100.820367,47.8258498 C100.820367,51.5009888 97.8239819,54.4801261 94.1275659,54.4801261 C90.4311498,54.4801261 87.4347648,51.5009888 87.4347648,47.8258498 C87.4347648,44.1507109 90.4311498,41.1715736 94.1275659,41.1715736 C97.8239819,41.1715736 100.820367,44.1507109 100.820367,47.8258498 Z M77.5330133,47.8258498 C77.5330133,51.5009888 74.5355788,54.4801261 70.8391628,54.4801261 C67.1427467,54.4801261 64.1463617,51.5009888 64.1463617,47.8258498 C64.1463617,44.1507109 67.1427467,41.1715736 70.8391628,41.1715736 C74.5355788,41.1715736 77.5330133,44.1507109 77.5330133,47.8258498 Z" id="Fill-1"></path>
        </g>
    </g>
</svg>