<?xml version="1.0" encoding="UTF-8" standalone="no"?>
<svg width="14px" height="12px" viewBox="0 0 14 12" version="1.1" xmlns="http://www.w3.org/2000/svg" xmlns:xlink="http://www.w3.org/1999/xlink" xmlns:sketch="http://www.bohemiancoding.com/sketch/ns">
    <!-- Generator: Sketch 3.5.1 (25234) - http://www.bohemiancoding.com/sketch -->
    <title>base</title>
    <desc>Created with Sketch.</desc>
    <defs></defs>
    <g id="Page-1" stroke="none" stroke-width="1" fill="none" fill-rule="evenodd" sketch:type="MSPage">
        <path d="M0,11 C0,10.4477153 0.449948758,10 1.00684547,10 L12.9931545,10 C13.5492199,10 14,10.4438648 14,11 C14,11.5522847 13.5500512,12 12.9931545,12 L1.00684547,12 C0.450780073,12 0,11.5561352 0,11 Z M0,6 C0,5.44771525 0.449948758,5 1.00684547,5 L12.9931545,5 C13.5492199,5 14,5.44386482 14,6 C14,6.55228475 13.5500512,7 12.9931545,7 L1.00684547,7 C0.450780073,7 0,6.55613518 0,6 Z M0,1 C0,0.44771525 0.449948758,0 1.00684547,0 L12.9931545,0 C13.5492199,0 14,0.443864822 14,1 L14,1 C14,1.55228475 13.5500512,2 12.9931545,2 L1.00684547,2 C0.450780073,2 0,1.55613518 0,1 L0,1 Z" id="base" fill="#F7FAFF" sketch:type="MSShapeGroup"></path>
    </g>
</svg>