<?xml version="1.0" encoding="UTF-8" standalone="no"?>
<svg width="280px" height="148px" viewBox="0 0 280 148" version="1.1" xmlns="http://www.w3.org/2000/svg" xmlns:xlink="http://www.w3.org/1999/xlink" xmlns:sketch="http://www.bohemiancoding.com/sketch/ns">
    <!-- Generator: Sketch 3.4.4 (17249) - http://www.bohemiancoding.com/sketch -->
    <title>Path 1</title>
    <desc>Created with Sketch.</desc>
    <defs></defs>
    <g id="Page-1" stroke="none" stroke-width="1" fill="none" fill-rule="evenodd" sketch:type="MSPage">
        <path d="M218.368489,137.512392 C223.56741,136.608477 229.01497,135.442208 234.579733,134.000002 C262.691671,126.714296 270.857141,105.999999 273.714286,102.285714 C276.57143,98.5714298 276.25,96.5 276.25,96.5 C276.25,96.5 275.000002,80.9999988 275,66.5 C274.999998,52.0000012 277.250002,34.7499988 278.25,22.75 C279.249998,10.7500012 280.000002,4.39999981 278.866667,3.26666667 C277.733332,2.13333353 275.045904,-0.670122584 271.64414,1.57142857 C249.223901,15.5693252 185.167482,23.422889 163.837404,23.422889 C151.677555,23.422889 117.778551,19.6641243 88.7609656,16.0881129 C94.3373199,20.2339956 100.038453,24.887 105.981843,30.1078116 C115.574998,38.5346616 125.316218,47.9598768 138.453901,61.3078817 C136.775246,59.6023529 164.133039,87.6281004 172.012474,95.4755981 C189.018723,112.412917 203.620297,125.782583 218.368489,137.512392 Z M193.11303,139.922271 C186.318864,139.901941 181.050812,139.141009 178.032735,137.714281 C170.175593,133.999993 160,129.714284 151.714286,130.428571 C143.428571,131.142859 131.857142,134.428565 126.714286,137.714286 C121.571429,141.000006 111.142856,147.571424 103.571429,147.571429 C96.0000008,147.571433 61.2857143,146.285714 39.4285714,134 C17.5714286,121.714286 7.57142912,101.142858 7.57142857,93.5714286 C7.57142803,85.9999988 8,80.5714304 8,71.8571429 C8,63.1428554 5.71428568,35.5714287 4.85714286,28.1428571 C4.00000003,20.7142856 2.57142844,15.7142861 1.57142857,13 C0.571428708,10.2857139 0.142857143,8.42857138 0.857142857,6.85714286 C1.57142857,5.28571434 4.71428619,3.14285718 8,2.42857143 C11.2857138,1.71428568 15.1428569,1.57142865 18,1.57142857 C20.8571431,1.57142849 31.428571,8.14285689 42.8571429,10 C43.0606347,10.0330674 43.2884727,10.0692128 43.5398459,10.1083161 C47.3159057,11.9746181 50.892939,13.813081 54.2555793,15.619475 C60.4606443,18.9528056 65.8666695,22.141161 70.390581,25.1522383 C77.9241774,30.1665367 85.7120929,36.2608418 94.1025626,43.631225 C103.301861,51.7121019 112.767396,60.870575 125.625311,73.9343335 C123.8656,72.146451 151.324878,100.276162 159.310425,108.229341 C171.428557,120.298355 182.400683,130.64189 193.11303,139.922271 Z M117.427142,88.3431871 C117.427142,88.3431871 113.677903,85.1563347 102.61765,78.4077051 C91.5573966,71.6590755 82.5592223,65.0979087 70.5616607,65.8477562 C58.564099,66.5976036 47.3163815,71.2841522 45.8166866,75.5957763 C45.8166866,84.4064877 55.7521678,93.0297355 59.688869,95.2792783 C63.6255703,97.5288212 72.4362802,101.090598 84.4338431,101.090598 C96.431406,101.090598 117.427142,88.3431871 117.427142,88.3431871 Z M185.100897,85.7187202 C185.100897,85.7187202 201.972471,70.3468416 209.658409,66.9725277 C217.344347,63.5982139 227.279829,60.2238986 234.965769,61.34867 C242.651708,62.4734414 246.400948,65.0979083 248.088103,68.2847612 C248.088102,75.5957759 246.400945,80.2823246 239.652317,86.4685679 C232.903688,92.6548112 221.655971,96.0291276 209.096023,96.029126 C196.536074,96.0291245 185.100897,85.7187202 185.100897,85.7187202 Z" id="Path-1" fill="#F7FAFF" sketch:type="MSShapeGroup"></path>
    </g>
</svg>